# xmcd
#
# Track frame offsets:
#	150
#	7649
#	16630
#	25374
#	32317
#	38228
#	51381
#	63409
#	73729
#	79505
#	86976
#	96934
#	110722
#	121253
#	131902
#	139924
#
# Disc length: 2083 seconds
#
# Revision: 5
# Processed by: cddbd v1.5.2PL0 Copyright (c) Steve Scherf et al.
# Submitted via: EZCDAudioConverter 2.1.7.1
#
DISCID=d2082110
DTITLE=V/A - Music For TV Dinners
DYEAR=1997
DGENRE=
TTITLE0=David Lindup - In The Limelight
TTITLE1=Laurie Johnson - Happy Go Lively
TTITLE2=King Palmer - Hackney Carriage
TTITLE3=Eric Winstone - Trafficscape
TTITLE4=Jack Beaver - Workaday World
TTITLE5=Otto Sieben - Curly Shirley
TTITLE6=John Shakespeare - Bell Hop
TTITLE7=Laurie Johnson - Man About Town
TTITLE8=King Palmer - Holiday Playtime
TTITLE9=Stuart Crombie and Dennis Berry - Bargains Galore
TTITLE10=Gerhard Narholz - Speaking Guitar
TTITLE11=Laurie Johnson - Shopping Spree
TTITLE12=Wilfred Burns - Stop Gap
TTITLE13=Boris Schoska - Toys For Boys
TTITLE14=Laurie Johnson - Gala Performance
TTITLE15=Johnny Pearson - Sleepy Shores
EXTD=
EXTT0=
EXTT1=
EXTT2=
EXTT3=
EXTT4=
EXTT5=
EXTT6=
EXTT7=
EXTT8=
EXTT9=
EXTT10=
EXTT11=
EXTT12=
EXTT13=
EXTT14=
EXTT15=
PLAYORDER=
